<svg width="20" height="20" viewBox="0 0 20 20" fill="none" xmlns="http://www.w3.org/2000/svg">
<path d="M18.5714 11.4286H11.4286V18.5714C11.4286 18.9503 11.2781 19.3137 11.0102 19.5816C10.7422 19.8495 10.3789 20 10 20C9.62112 20 9.25776 19.8495 8.98985 19.5816C8.72194 19.3137 8.57143 18.9503 8.57143 18.5714V11.4286H1.42857C1.04969 11.4286 0.686328 11.2781 0.418419 11.0102C0.15051 10.7422 0 10.3789 0 10C0 9.62112 0.15051 9.25776 0.418419 8.98985C0.686328 8.72194 1.04969 8.57143 1.42857 8.57143H8.57143V1.42857C8.57143 1.04969 8.72194 0.686328 8.98985 0.418419C9.25776 0.150509 9.62112 0 10 0C10.3789 0 10.7422 0.150509 11.0102 0.418419C11.2781 0.686328 11.4286 1.04969 11.4286 1.42857V8.57143H18.5714C18.9503 8.57143 19.3137 8.72194 19.5816 8.98985C19.8495 9.25776 20 9.62112 20 10C20 10.3789 19.8495 10.7422 19.5816 11.0102C19.3137 11.2781 18.9503 11.4286 18.5714 11.4286Z" fill="#C9DDFF"/>
</svg>
