<!DOCTYPE svg PUBLIC "-//W3C//DTD SVG 1.1//EN" "http://www.w3.org/Graphics/SVG/1.1/DTD/svg11.dtd">
<!-- Uploaded to: SVG Repo, www.svgrepo.com, Transformed by: SVG Repo Mixer Tools -->
<svg fill="#dc2626" height="800px" width="800px" version="1.1" id="Layer_1" xmlns="http://www.w3.org/2000/svg" xmlns:xlink="http://www.w3.org/1999/xlink" viewBox="0 0 512.456 512.456" xml:space="preserve">
<g id="SVGRepo_bgCarrier" stroke-width="0"/>
<g id="SVGRepo_tracerCarrier" stroke-linecap="round" stroke-linejoin="round"/>
<g id="SVGRepo_iconCarrier"> <g transform="translate(-1)"> <g> <g> <path d="M506.845,376.187c-2.507-4.739-5.667-9.463-9.428-14.215c-8.571-10.83-20.228-21.791-34.287-32.906 c-9.809-7.755-20.237-15.145-30.657-21.961c-6.267-4.1-11.191-7.129-14.123-8.847c-24.748-14.091-53.259-12.224-67.985,11.503 c-0.684,0.813-1.554,1.841-2.569,3.033c-2.775,3.261-5.591,6.519-8.261,9.539c-0.571,0.645-0.571,0.645-1.142,1.287 c-4.448,4.994-8.5,9.183-8.381,9.102c-16.25,10.998-26.86,10.129-41.23-4.241c-9.845-9.845-26.329-7.774-33.432,4.2 l-42.411,71.488c-4.974,8.385-3.631,19.076,3.263,25.97c90.916,90.916,181.583,111.883,257.669,35.797l22.933-22.933 C514.455,425.352,518.524,398.246,506.845,376.187z M466.634,412.833l-22.933,22.933c-52.76,52.76-114.173,41.95-185.458-24.338 l21.685-36.552c23.487,12.662,48.852,10.201,74.057-6.858c4.166-2.84,8.778-7.607,16.272-16.022 c0.625-0.703,0.625-0.703,1.246-1.405c2.866-3.242,5.849-6.694,8.785-10.144c1.761-2.069,3.122-3.686,3.91-4.63l2.223-3.224 c0.637-1.135,3.593-1.371,10.589,2.611c2.129,1.25,6.466,3.918,12.106,7.607c9.425,6.165,18.842,12.839,27.554,19.727 c11.686,9.238,21.099,18.09,27.291,25.913c2.233,2.822,3.966,5.412,5.173,7.693C472.054,401.659,471.037,408.429,466.634,412.833 z"/> <path d="M109.286,300.518l71.488-42.411c11.974-7.104,14.045-23.588,4.2-33.432c-14.368-14.368-15.238-24.996-4.206-41.281 c-0.088,0.13,4.083-3.911,9.038-8.321c0.654-0.582,0.654-0.582,1.313-1.164c3.018-2.665,6.273-5.475,9.531-8.244 c1.194-1.014,2.223-1.883,3.035-2.566c23.736-14.725,25.608-43.254,11.645-67.781c-1.853-3.165-4.883-8.087-8.983-14.353 c-6.817-10.418-14.208-20.843-21.963-30.65c-11.113-14.054-22.074-25.706-32.902-34.275c-4.752-3.76-9.476-6.92-14.221-9.43 C115.209-5.067,88.103-0.997,70.453,16.653L47.519,39.587C-28.566,115.672-7.599,206.34,83.317,297.255 C90.211,304.149,100.901,305.492,109.286,300.518z M77.689,69.757l22.933-22.933c4.403-4.403,11.174-5.419,16.683-2.503 c2.289,1.21,4.879,2.943,7.701,5.176c7.823,6.19,16.674,15.6,25.911,27.281c6.888,8.71,13.562,18.125,19.728,27.548 c3.689,5.638,6.358,9.974,7.741,12.334c3.848,6.762,3.61,9.74,2.476,10.376l-3.208,2.21c-0.945,0.787-2.563,2.146-4.632,3.905 c-3.45,2.932-6.904,5.913-10.148,8.778c-0.718,0.635-0.718,0.635-1.436,1.273c-8.44,7.513-13.207,12.131-16.016,16.294 c-17.049,25.168-19.506,50.539-6.841,74.033l-36.553,21.685C35.739,183.929,24.929,122.517,77.689,69.757z"/> <path d="M443.206,70.245c-8.331-8.331-21.839-8.331-30.17,0l-384,384c-8.331,8.331-8.331,21.839,0,30.17 c8.331,8.331,21.839,8.331,30.17,0l384-384C451.537,92.083,451.537,78.576,443.206,70.245z"/> </g> </g> </g> </g>
</svg>