<svg width="14" height="14" viewBox="0 0 14 14" fill="none" xmlns="http://www.w3.org/2000/svg">
<path d="M4.08325 5.63906C4.08325 5.22645 4.24716 4.83074 4.53892 4.53898C4.83068 4.24722 5.22639 4.08331 5.639 4.08331H10.6942C10.8985 4.08331 11.1008 4.12355 11.2895 4.20174C11.4783 4.27992 11.6498 4.39452 11.7943 4.53898C11.9387 4.68345 12.0533 4.85495 12.1315 5.0437C12.2097 5.23246 12.2499 5.43476 12.2499 5.63906V10.6942C12.2499 10.8985 12.2097 11.1008 12.1315 11.2896C12.0533 11.4783 11.9387 11.6498 11.7943 11.7943C11.6498 11.9388 11.4783 12.0534 11.2895 12.1316C11.1008 12.2097 10.8985 12.25 10.6942 12.25H5.639C5.4347 12.25 5.23239 12.2097 5.04364 12.1316C4.85489 12.0534 4.68339 11.9388 4.53892 11.7943C4.39446 11.6498 4.27986 11.4783 4.20168 11.2896C4.12349 11.1008 4.08325 10.8985 4.08325 10.6942V5.63906Z" stroke="#C9DDFF" stroke-width="1.2" stroke-linecap="round" stroke-linejoin="round"/>
<path d="M2.34033 9.76325C2.16145 9.66127 2.01266 9.51387 1.909 9.33596C1.80535 9.15804 1.7505 8.95591 1.75 8.75V2.91667C1.75 2.275 2.275 1.75 2.91667 1.75H8.75C9.1875 1.75 9.4255 1.97458 9.625 2.33333" stroke="#C9DDFF" stroke-width="1.2" stroke-linecap="round" stroke-linejoin="round"/>
</svg>
