<svg width="28" height="30" viewBox="0 0 28 30" fill="none" xmlns="http://www.w3.org/2000/svg">
<path d="M19.8465 19.5844C20.6973 19.1273 21.6711 18.8672 22.7082 18.8672H22.7117C22.8172 18.8672 22.8664 18.7406 22.7891 18.6703C21.7105 17.7024 20.4785 16.9206 19.1434 16.357C19.1293 16.35 19.1153 16.3465 19.1012 16.3395C21.2844 14.7539 22.7047 12.177 22.7047 9.26953C22.7047 4.45312 18.8094 0.550781 14.0035 0.550781C9.19768 0.550781 5.30589 4.45312 5.30589 9.26953C5.30589 12.177 6.7262 14.7539 8.91292 16.3395C8.89886 16.3465 8.88479 16.35 8.87073 16.357C7.29925 17.0215 5.88948 17.9742 4.67659 19.1906C3.4707 20.3943 2.51066 21.8213 1.85003 23.3918C1.20003 24.9298 0.849239 26.5775 0.816433 28.2469C0.815495 28.2844 0.822076 28.3217 0.83579 28.3567C0.849503 28.3916 0.870071 28.4234 0.896281 28.4503C0.922492 28.4772 0.953815 28.4985 0.988404 28.5131C1.02299 28.5277 1.06015 28.5352 1.09768 28.5352H3.20354C3.35471 28.5352 3.48128 28.4121 3.48479 28.2609C3.55511 25.5469 4.64143 23.0051 6.56448 21.0785C8.55081 19.0852 11.1946 17.9883 14.0071 17.9883C16.0004 17.9883 17.9129 18.5402 19.5617 19.5738C19.6041 19.6004 19.6527 19.6154 19.7027 19.6173C19.7527 19.6191 19.8023 19.6078 19.8465 19.5844ZM14.0071 15.3164C12.3969 15.3164 10.8817 14.6871 9.73909 13.5445C9.17692 12.9838 8.73126 12.3174 8.42776 11.5837C8.12427 10.85 7.96894 10.0635 7.97073 9.26953C7.97073 7.65586 8.60003 6.13711 9.73909 4.99453C10.8782 3.85195 12.3934 3.22266 14.0071 3.22266C15.6207 3.22266 17.1325 3.85195 18.275 4.99453C18.8372 5.55524 19.2829 6.22164 19.5864 6.95534C19.8899 7.68904 20.0452 8.47554 20.0434 9.26953C20.0434 10.8832 19.4141 12.402 18.275 13.5445C17.1325 14.6871 15.6172 15.3164 14.0071 15.3164ZM26.9375 23.6836H23.9844V20.7305C23.9844 20.5758 23.8578 20.4492 23.7032 20.4492H21.7344C21.5797 20.4492 21.4532 20.5758 21.4532 20.7305V23.6836H18.5C18.3453 23.6836 18.2188 23.8102 18.2188 23.9648V25.9336C18.2188 26.0883 18.3453 26.2148 18.5 26.2148H21.4532V29.168C21.4532 29.3227 21.5797 29.4492 21.7344 29.4492H23.7032C23.8578 29.4492 23.9844 29.3227 23.9844 29.168V26.2148H26.9375C27.0922 26.2148 27.2188 26.0883 27.2188 25.9336V23.9648C27.2188 23.8102 27.0922 23.6836 26.9375 23.6836Z" fill="white"/>
</svg>
