<svg width="11" height="12" viewBox="0 0 11 12" fill="none" xmlns="http://www.w3.org/2000/svg">
<path d="M9.82367 5.07419L1.9443 0.254583C1.77906 0.153848 1.59005 0.0987593 1.39656 0.0949397C1.20307 0.0911201 1.01203 0.138707 0.842945 0.232842C0.673857 0.326977 0.532773 0.464291 0.434094 0.630767C0.335414 0.797244 0.282671 0.986922 0.28125 1.18044V10.8197C0.282671 11.0132 0.335414 11.2029 0.434094 11.3693C0.532773 11.5358 0.673857 11.6731 0.842945 11.7673C1.01203 11.8614 1.20307 11.909 1.39656 11.9052C1.59005 11.9013 1.77906 11.8463 1.9443 11.7455L9.82367 6.92591C9.98255 6.8292 10.1139 6.69323 10.205 6.53108C10.2961 6.36893 10.344 6.18605 10.344 6.00005C10.344 5.81405 10.2961 5.63118 10.205 5.46903C10.1139 5.30688 9.98255 5.17091 9.82367 5.07419ZM1.59375 10.4215V1.57857L8.82125 6.00005L1.59375 10.4215Z" fill="white"/>
</svg>
