<svg width="33" height="26" viewBox="0 0 33 26" fill="none" xmlns="http://www.w3.org/2000/svg">
<path fill-rule="evenodd" clip-rule="evenodd" d="M23.4452 18.3074C23.5665 21.0555 21.3486 23.3793 18.4918 23.4961C18.2814 23.505 8.02284 23.4843 8.02284 23.4843C5.17982 23.7001 2.6916 21.6572 2.46735 18.9194C2.45046 18.7154 2.45507 7.70823 2.45507 7.70823C2.32912 4.95717 4.54394 2.62742 7.40233 2.5062C7.61582 2.49586 17.8605 2.51507 17.8605 2.51507C20.7174 2.3022 23.2133 4.35995 23.4345 7.11101C23.4498 7.30909 23.4452 18.3074 23.4452 18.3074Z" stroke="white" stroke-width="3.11111" stroke-linecap="round" stroke-linejoin="round"/>
<path d="M23.45 9.96969L28.3895 5.92719C29.6135 4.92519 31.4494 5.79819 31.4479 7.37769L31.43 18.4012C31.4285 19.9807 29.591 20.8462 28.37 19.8442L23.45 15.8017" stroke="white" stroke-width="3.11111" stroke-linecap="round" stroke-linejoin="round"/>
</svg>
