<svg width="32" height="34" viewBox="0 0 32 34" fill="none" xmlns="http://www.w3.org/2000/svg">
<path d="M22.9608 0C23.3871 5.62276e-05 23.7985 0.156544 24.117 0.439781C24.4355 0.723018 24.639 1.11331 24.6889 1.53662L24.7011 1.74022V3.48045H28.1815C29.0596 3.48017 29.9053 3.8118 30.5492 4.40885C31.193 5.0059 31.5874 5.82426 31.6533 6.69986L31.662 6.96089V27.8436C31.6622 28.7216 31.3306 29.5674 30.7336 30.2112C30.1365 30.8551 29.3182 31.2495 28.4426 31.3153L28.1815 31.324H3.8184C2.94032 31.3243 2.09459 30.9927 1.45074 30.3956C0.806891 29.7986 0.412509 28.9802 0.346653 28.1046L0.337952 27.8436V6.96089C0.337674 6.08282 0.669301 5.23708 1.26636 4.59324C1.86341 3.94938 2.68176 3.555 3.55736 3.48915L3.8184 3.48045H7.29884V1.74022C7.29934 1.29668 7.46917 0.870055 7.77366 0.547529C8.07815 0.225003 8.4943 0.0309151 8.93708 0.00492115C9.37987 -0.0210728 9.81587 0.12299 10.156 0.407673C10.4961 0.692357 10.7147 1.09617 10.7671 1.53662L10.7793 1.74022V3.48045H21.2206V1.74022C21.2206 1.27869 21.404 0.836055 21.7303 0.509699C22.0567 0.183344 22.4993 0 22.9608 0ZM28.1815 15.662H3.8184V27.8436H28.1815V15.662ZM28.1815 6.96089H3.8184V12.1816H28.1815V6.96089Z" fill="white"/>
</svg>
