<svg width="22" height="16" viewBox="0 0 22 16" fill="none" xmlns="http://www.w3.org/2000/svg">
<path fill-rule="evenodd" clip-rule="evenodd" d="M15.2968 11.5383C15.3777 13.3704 13.8991 14.9196 11.9946 14.9975C11.8543 15.0034 5.01526 14.9896 5.01526 14.9896C3.11991 15.1335 1.4611 13.7715 1.3116 11.9463C1.30034 11.8103 1.30341 4.47219 1.30341 4.47219C1.21945 2.63815 2.69599 1.08499 4.60158 1.00418C4.74391 0.997278 11.5737 1.01009 11.5737 1.01009C13.4783 0.868176 15.1422 2.24001 15.2897 4.07405C15.2999 4.2061 15.2968 11.5383 15.2968 11.5383Z" stroke="#C9DDFF" stroke-width="2" stroke-linecap="round" stroke-linejoin="round"/>
<path d="M15.3 5.97984L18.593 3.28484C19.409 2.61684 20.633 3.19884 20.632 4.25184L20.62 11.6008C20.619 12.6538 19.394 13.2308 18.58 12.5628L15.3 9.86784" stroke="#C9DDFF" stroke-width="2" stroke-linecap="round" stroke-linejoin="round"/>
</svg>
